<mxfile host="app.diagrams.net" modified="2024-03-31T16:49:06.452Z" agent="Mozilla/5.0 (Windows NT 10.0; Win64; x64) AppleWebKit/537.36 (KHTML, like Gecko) Chrome/123.0.0.0 Safari/537.36" etag="gL-kYPZsbBDD7ADz1RQT" version="24.2.1" type="github" pages="2">
  <diagram id="mMT2B7IPSLqFw86a7ch0" name="第 1 页">
    <mxGraphModel dx="1802" dy="860" grid="1" gridSize="10" guides="1" tooltips="1" connect="1" arrows="1" fold="1" page="1" pageScale="1" pageWidth="827" pageHeight="1169" math="0" shadow="0">
      <root>
        <mxCell id="0" />
        <mxCell id="1" parent="0" />
        <mxCell id="d26VpmdbgYNNtqfkizbk-1" value="&lt;font style=&quot;font-size: 18px;&quot;&gt;昶晨和文沛的新家装修计划&lt;/font&gt;" style="text;html=1;align=center;verticalAlign=middle;resizable=0;points=[];autosize=1;strokeColor=#6c8ebf;fillColor=#dae8fc;spacingLeft=20;spacingBottom=20;spacingRight=20;spacingTop=20;fontFamily=Georgia;" vertex="1" parent="1">
          <mxGeometry x="670" y="740" width="280" height="70" as="geometry" />
        </mxCell>
        <mxCell id="d26VpmdbgYNNtqfkizbk-2" value="目前进展" style="rounded=1;whiteSpace=wrap;html=1;" vertex="1" parent="1">
          <mxGeometry x="160" y="960" width="120" height="60" as="geometry" />
        </mxCell>
        <mxCell id="d26VpmdbgYNNtqfkizbk-3" value="总计划" style="rounded=1;whiteSpace=wrap;html=1;" vertex="1" parent="1">
          <mxGeometry x="160" y="1080" width="120" height="60" as="geometry" />
        </mxCell>
        <mxCell id="d26VpmdbgYNNtqfkizbk-4" value="1. 阳台封窗" style="rounded=1;whiteSpace=wrap;html=1;fillColor=#d5e8d4;strokeColor=#82b366;" vertex="1" parent="1">
          <mxGeometry x="350" y="1080" width="120" height="60" as="geometry" />
        </mxCell>
        <mxCell id="d26VpmdbgYNNtqfkizbk-5" value="2. 阳台通铺" style="rounded=1;whiteSpace=wrap;html=1;fillColor=#dae8fc;strokeColor=#6c8ebf;" vertex="1" parent="1">
          <mxGeometry x="520" y="1080" width="120" height="60" as="geometry" />
        </mxCell>
        <mxCell id="d26VpmdbgYNNtqfkizbk-6" value="3. 全屋定制" style="rounded=1;whiteSpace=wrap;html=1;fillColor=#dae8fc;strokeColor=#6c8ebf;" vertex="1" parent="1">
          <mxGeometry x="690" y="1080" width="120" height="60" as="geometry" />
        </mxCell>
        <mxCell id="d26VpmdbgYNNtqfkizbk-7" value="4. 成品家具" style="rounded=1;whiteSpace=wrap;html=1;" vertex="1" parent="1">
          <mxGeometry x="860" y="1080" width="120" height="60" as="geometry" />
        </mxCell>
        <mxCell id="d26VpmdbgYNNtqfkizbk-8" value="5. 全屋电器" style="rounded=1;whiteSpace=wrap;html=1;" vertex="1" parent="1">
          <mxGeometry x="1030" y="1080" width="120" height="60" as="geometry" />
        </mxCell>
        <mxCell id="d26VpmdbgYNNtqfkizbk-9" value="6. 入住前准备" style="rounded=1;whiteSpace=wrap;html=1;" vertex="1" parent="1">
          <mxGeometry x="1200" y="1080" width="120" height="60" as="geometry" />
        </mxCell>
        <mxCell id="d26VpmdbgYNNtqfkizbk-10" value="" style="rounded=1;whiteSpace=wrap;html=1;" vertex="1" parent="1">
          <mxGeometry x="520" y="1180" width="120" height="60" as="geometry" />
        </mxCell>
        <mxCell id="d26VpmdbgYNNtqfkizbk-11" value="" style="rounded=1;whiteSpace=wrap;html=1;" vertex="1" parent="1">
          <mxGeometry x="520" y="1270" width="120" height="60" as="geometry" />
        </mxCell>
        <mxCell id="d26VpmdbgYNNtqfkizbk-12" value="床" style="rounded=1;whiteSpace=wrap;html=1;" vertex="1" parent="1">
          <mxGeometry x="860" y="1170" width="120" height="60" as="geometry" />
        </mxCell>
        <mxCell id="d26VpmdbgYNNtqfkizbk-13" value="" style="rounded=1;whiteSpace=wrap;html=1;" vertex="1" parent="1">
          <mxGeometry x="690" y="1270" width="120" height="60" as="geometry" />
        </mxCell>
      </root>
    </mxGraphModel>
  </diagram>
  <diagram id="kdJeROLduSGKQ8txdP4E" name="第 2 页">
    <mxGraphModel dx="1562" dy="810" grid="1" gridSize="10" guides="1" tooltips="1" connect="1" arrows="1" fold="1" page="1" pageScale="1" pageWidth="827" pageHeight="1169" math="0" shadow="0">
      <root>
        <mxCell id="0" />
        <mxCell id="1" parent="0" />
        <mxCell id="aeps_WbyyTZ9jilFd3UT-1" value="" style="rounded=0;whiteSpace=wrap;html=1;" vertex="1" parent="1">
          <mxGeometry x="260" y="380" width="320" height="210" as="geometry" />
        </mxCell>
      </root>
    </mxGraphModel>
  </diagram>
</mxfile>
